<svg width="73" height="47" viewBox="0 0 73 47" fill="none" xmlns="http://www.w3.org/2000/svg">
<path d="M63.8102 0C55.9825 0 48.2415 1.57767 41.0726 4.61166V13.6833C48.1028 10.1118 55.9045 8.23511 63.8102 8.23511H72.7301V0H63.8102Z" fill="white"/>
<path d="M0.269867 0V8.23511H9.18545C17.0912 8.23511 24.8928 10.1075 31.923 13.6833V4.60733C24.7498 1.57767 17.0131 0 9.18545 0H0.269867Z" fill="white"/>
<path d="M36.5 31.8482C37.2152 31.8482 37.9303 31.6618 38.5718 31.2891C46.2261 26.8334 54.9553 24.4799 63.8146 24.4799H72.7345V16.2448H63.8146C54.2965 16.2448 44.9042 18.581 36.5043 23.0236C28.1045 18.581 18.7122 16.2448 9.19412 16.2448H0.269867V24.4799H9.18979C18.0447 24.4799 26.7739 26.8334 34.4282 31.2891C35.0697 31.6618 35.7849 31.8482 36.5 31.8482Z" fill="white"/>
<path d="M63.8102 32.4897C55.9825 32.4897 48.2415 34.0717 41.0726 37.1013V46.1773C48.1028 42.6015 55.9045 40.7248 63.8102 40.7248H72.7301V32.4897H63.8102Z" fill="white"/>
<path d="M0.269867 32.4897V40.7248H9.18545C17.0912 40.7248 24.8928 42.6015 31.923 46.1773V37.097C24.7498 34.0717 17.0131 32.4897 9.18545 32.4897H0.269867Z" fill="white"/>
</svg>
