<svg width="73" height="82" viewBox="0 0 73 82" fill="none" xmlns="http://www.w3.org/2000/svg">
<g clip-path="url(#clip0_44_308)">
<path d="M22.2186 64.6673C21.7375 63.029 21.0267 61.2476 18.6775 61.2476C17.0305 61.2476 16.1636 62.4265 16.1636 63.8135C16.1636 65.3305 17.1648 66.1843 19.3493 67.2939C22.1753 68.7155 23.7573 69.9811 23.7573 72.456C23.7573 75.3296 21.3344 77.4577 17.8366 77.4577C16.2503 77.4577 14.8503 77.0287 13.7104 76.6559C13.5414 76.0274 13.1556 73.7129 12.9779 72.4603L13.8968 72.2393C14.4039 73.8733 15.7172 76.4392 18.2527 76.4392C19.8954 76.4392 20.8966 75.3686 20.8966 73.7389C20.8966 72.1093 19.9388 71.2641 17.776 70.0982C15.1321 68.6722 13.4894 67.4196 13.4894 64.884C13.4894 62.3485 15.4961 60.2507 19.1369 60.2507C20.7709 60.2507 22.1146 60.6321 22.665 60.7145C22.7647 61.642 22.9164 62.8556 23.1201 64.4679L22.2186 64.6673Z" fill="black"/>
<path d="M34.4716 77.0719V76.2137C36.0839 75.9927 36.1576 75.724 35.8022 74.6794C35.5205 73.8386 35.0827 72.6553 34.6493 71.4374H29.5218C29.1968 72.3476 28.837 73.3185 28.5466 74.194C28.0048 75.8063 28.525 76.01 30.5534 76.2137V77.0719H24.4334V76.2137C26.0284 76.01 26.4358 75.802 27.307 73.6175L32.5688 60.4457L33.6437 60.2463C35.2561 64.6283 36.9898 69.2399 38.6195 73.5222C39.5123 75.828 39.742 76.0144 41.4411 76.2137V77.0719H34.4716ZM32.1354 64.4722C31.3726 66.4226 30.6097 68.334 29.9336 70.2368H34.2115L32.1354 64.4722Z" fill="black"/>
<path d="M60.0178 61.4599C58.4444 61.6549 57.946 61.9583 57.868 63.1069C57.8116 64.0345 57.7423 64.9663 57.7423 67.2245V77.3363H56.481L45.8144 64.4592V70.4015C45.8144 72.6336 45.875 73.6739 45.9401 74.4107C46.0224 75.5896 46.5902 76.1011 48.4496 76.2181V77.0763H42.2082V76.2181C43.6949 76.0924 44.3234 75.711 44.4577 74.5017C44.5487 73.6262 44.6008 72.6336 44.6008 70.3928V64.2252C44.6008 63.432 44.5488 62.9292 44.0763 62.3051C43.6125 61.6723 43.0274 61.5683 41.9048 61.4599V60.6017H46.4472L56.4853 72.3606V67.2245C56.4853 64.9663 56.4506 64.0431 56.377 63.1676C56.2989 62.058 55.8352 61.5899 53.7547 61.4642V60.6061H60.0134V61.4642L60.0178 61.4599Z" fill="black"/>
<path d="M63.8102 0C55.9825 0 48.2415 1.57767 41.0726 4.61166V13.6833C48.1028 10.1118 55.9045 8.23511 63.8102 8.23511H72.7301V0H63.8102Z" fill="#F79827"/>
<path d="M0.269867 0V8.23511H9.18545C17.0912 8.23511 24.8928 10.1075 31.923 13.6833V4.60733C24.7498 1.57767 17.0131 0 9.18545 0H0.269867Z" fill="#F79827"/>
<path d="M36.5 31.8482C37.2152 31.8482 37.9303 31.6618 38.5718 31.2891C46.2261 26.8334 54.9553 24.4799 63.8146 24.4799H72.7345V16.2448H63.8146C54.2965 16.2448 44.9042 18.581 36.5043 23.0236C28.1045 18.581 18.7122 16.2448 9.19412 16.2448H0.269867V24.4799H9.18979C18.0447 24.4799 26.7739 26.8334 34.4282 31.2891C35.0697 31.6618 35.7849 31.8482 36.5 31.8482Z" fill="#F79827"/>
<path d="M63.8102 32.4897C55.9825 32.4897 48.2415 34.0717 41.0726 37.1013V46.1773C48.1028 42.6015 55.9045 40.7248 63.8102 40.7248H72.7301V32.4897H63.8102Z" fill="#F79827"/>
<path d="M0.269867 32.4897V40.7248H9.18545C17.0912 40.7248 24.8928 42.6015 31.923 46.1773V37.097C24.7498 34.0717 17.0131 32.4897 9.18545 32.4897H0.269867Z" fill="#F79827"/>
</g>
<defs>
<clipPath id="clip0_44_308">
<rect width="72.4603" height="82" fill="white" transform="translate(0.269867)"/>
</clipPath>
</defs>
</svg>
