<svg width="42" height="28" viewBox="0 0 42 28" fill="none" xmlns="http://www.w3.org/2000/svg">
<path d="M36.4507 0.9366C32.0218 0.9366 27.642 1.82924 23.5859 3.54585V8.67851C27.5636 6.65781 31.9777 5.59597 36.4507 5.59597H41.4975V0.9366H36.4507Z" fill="#F79827"/>
<path d="M0.5 0.9366V5.59597H5.54438C10.0174 5.59597 14.4315 6.65536 18.4091 8.67851V3.54339C14.3506 1.82924 9.97323 0.9366 5.54438 0.9366H0.5Z" fill="#F79827"/>
<path d="M20.9988 18.9561C21.4034 18.9561 21.808 18.8506 22.171 18.6397C26.5017 16.1188 31.4407 14.7872 36.4532 14.7872H41.5V10.1278H36.4532C31.0679 10.1278 25.7538 11.4496 21.0012 13.9632C16.2487 11.4496 10.9345 10.1278 5.54928 10.1278H0.5V14.7872H5.54683C10.5569 14.7872 15.4958 16.1188 19.8266 18.6397C20.1895 18.8506 20.5941 18.9561 20.9988 18.9561Z" fill="#F79827"/>
<path d="M36.4507 19.319C32.0218 19.319 27.642 20.2141 23.5859 21.9283V27.0634C27.5636 25.0402 31.9777 23.9784 36.4507 23.9784H41.4975V19.319H36.4507Z" fill="#F79827"/>
<path d="M0.5 19.319V23.9784H5.54438C10.0174 23.9784 14.4315 25.0402 18.4091 27.0634V21.9258C14.3506 20.2141 9.97323 19.319 5.54438 19.319H0.5Z" fill="#F79827"/>
</svg>
